<svg version="1.1" id="Layer_1" xmlns="http://www.w3.org/2000/svg" xmlns:xlink="http://www.w3.org/1999/xlink" x="0px" y="0px"
	 width="100%" viewBox="0 0 512 512" enable-background="new 0 0 512 512" xml:space="preserve">
<path fill="#000000" opacity="1.000000" stroke="none" 
	d="
M1.000001,377.000000 
	C1.000000,251.709320 1.000000,126.418648 1.000000,1.063984 
	C171.565903,1.063984 342.131836,1.063984 513.000000,1.063984 
	C513.000000,126.023163 513.000000,251.046570 512.631958,376.578613 
	C505.379791,372.661835 503.681366,372.877350 497.731995,378.756744 
	C495.252289,381.207245 492.682068,383.566162 490.092102,385.598633 
	C480.341736,364.422791 470.634094,343.623413 460.967316,322.805084 
	C448.285400,295.493378 435.658020,268.156311 422.961334,240.851456 
	C417.809143,229.771439 412.471375,218.777618 407.331787,207.691849 
	C396.454498,184.230438 385.651978,160.734360 374.873535,136.767334 
	C374.944702,128.789795 375.100067,121.294250 374.928467,113.806183 
	C374.814941,108.850426 372.109802,106.894119 366.541656,106.994293 
	C361.974762,107.076454 359.942841,109.367538 359.986389,113.864372 
	C360.047638,120.190857 359.980286,126.518593 359.522583,132.909454 
	C356.373718,133.044342 353.670166,133.115555 350.504547,133.117676 
	C296.839447,133.032364 243.636429,133.024704 190.433411,132.993317 
	C178.632095,132.986359 166.830795,132.895645 155.021271,132.385498 
	C155.003433,125.959908 155.112885,119.988991 154.947723,114.025681 
	C154.807449,108.961510 152.302185,106.933792 146.816940,107.008934 
	C141.961395,107.075447 140.038055,108.977028 140.022934,114.038002 
	C139.999649,121.827438 140.098984,129.617233 140.096786,137.594879 
	C139.922119,138.024353 139.891312,138.277313 139.682632,138.801453 
	C129.034363,161.211334 118.671555,183.367722 108.279160,205.510223 
	C91.887146,240.435822 75.490402,275.359192 59.066685,310.269867 
	C47.337101,335.202576 35.560032,360.112915 23.474297,384.966003 
	C20.145641,382.155273 17.114470,379.446075 14.156875,376.658813 
	C11.000269,373.683960 7.678418,373.147766 3.963603,375.608368 
	C3.063425,376.204620 1.992447,376.543030 1.000001,377.000000 
z"/>
<path fill="#000000" opacity="1.000000" stroke="none" 
	d="
M513.000000,387.000000 
	C513.000000,428.975922 513.000000,470.951874 513.000000,512.963867 
	C342.455200,512.963867 171.910400,512.963867 1.000000,512.963867 
	C1.000000,471.313141 1.000000,429.625244 1.349266,387.411804 
	C7.469153,392.466827 13.118140,398.182587 19.082718,403.547485 
	C20.931149,405.210083 23.636875,405.919525 26.151569,407.294250 
	C27.071131,407.378113 27.789230,407.233093 28.503218,407.056885 
	C28.499105,407.025665 28.445543,407.058746 28.940952,407.174988 
	C69.634033,407.304260 109.831703,407.317322 150.386261,407.529999 
	C151.567719,407.810699 152.392273,407.962433 153.216873,407.962677 
	C190.104370,407.974121 226.991882,407.981964 263.879303,407.934692 
	C265.297211,407.932892 266.714355,407.384857 268.444397,407.080139 
	C269.165314,407.006042 269.573730,406.943146 270.450623,406.917908 
	C336.607544,406.969421 402.295929,406.984070 467.984344,406.989441 
	C468.978546,406.989532 469.972717,406.874695 471.428619,406.890381 
	C476.283417,406.942749 480.676483,406.918182 485.486969,406.954529 
	C489.578339,407.459747 492.382507,406.392487 495.137024,403.572144 
	C500.805115,397.768555 507.013794,392.492889 513.000000,387.000000 
z"/>
<path fill="#5A4334" opacity="1.000000" stroke="none" 
	d="
M513.000000,386.545898 
	C507.013794,392.492889 500.805115,397.768555 495.137024,403.572144 
	C492.382507,406.392487 489.578339,407.459747 485.278076,406.669556 
	C479.504639,401.709625 479.315643,397.848938 483.923248,392.919647 
	C486.047760,390.646790 488.079285,388.287018 490.152954,385.966675 
	C492.682068,383.566162 495.252289,381.207245 497.731995,378.756744 
	C503.681366,372.877350 505.379791,372.661835 512.631958,377.043640 
	C513.000000,380.030609 513.000000,383.061188 513.000000,386.545898 
z"/>
<path fill="#5B4235" opacity="1.000000" stroke="none" 
	d="
M28.445543,407.058746 
	C28.445543,407.058746 28.499105,407.025665 28.076912,407.043335 
	C27.086514,407.062439 26.518312,407.063904 25.950108,407.065369 
	C23.636875,405.919525 20.931149,405.210083 19.082718,403.547485 
	C13.118140,398.182587 7.469153,392.466827 1.349266,386.943146 
	C1.000000,383.969391 1.000000,380.938812 1.000001,377.454102 
	C1.992447,376.543030 3.063425,376.204620 3.963603,375.608368 
	C7.678418,373.147766 11.000269,373.683960 14.156875,376.658813 
	C17.114470,379.446075 20.145641,382.155273 23.542755,385.310760 
	C25.701105,387.831909 27.343695,390.054077 29.243118,392.029205 
	C35.011959,398.027924 34.855934,401.757690 28.445543,407.058746 
z"/>
<path fill="#DD9300" opacity="1.000000" stroke="none" 
	d="
M470.966919,406.813507 
	C469.972717,406.874695 468.978546,406.989532 467.984344,406.989441 
	C402.295929,406.984070 336.607544,406.969421 270.648651,406.652405 
	C276.919464,399.974487 283.586884,393.722198 289.947418,387.171936 
	C293.012054,384.015900 292.737915,379.672638 289.970764,376.832642 
	C287.079407,373.865112 282.654205,373.748871 279.249573,376.931793 
	C274.636688,381.244293 270.149536,385.704102 265.812164,390.293243 
	C263.569183,392.666473 261.765778,395.455170 259.398682,398.092438 
	C258.563995,398.273285 258.094391,398.417847 257.548523,398.529877 
	C257.472229,398.497345 257.530609,398.342102 257.581909,397.955750 
	C254.511185,390.245392 251.579010,382.833405 248.235855,375.611725 
	C228.184555,332.297791 208.018448,289.037018 187.933533,245.738602 
	C178.416443,225.221939 169.074814,204.623627 159.499176,184.134506 
	C153.518997,171.338623 147.250580,158.677444 141.028534,145.555756 
	C140.615295,142.951050 140.285049,140.746414 139.954803,138.541763 
	C139.891312,138.277313 139.922119,138.024353 140.378174,137.354538 
	C144.225815,131.157181 150.086578,133.610077 155.029495,132.843491 
	C166.830795,132.895645 178.632095,132.986359 190.433411,132.993317 
	C243.636429,133.024704 296.839447,133.032364 350.609680,133.442566 
	C353.234467,137.832703 355.432465,141.763535 357.326080,145.835922 
	C367.294830,167.274841 377.162384,188.760788 387.111603,210.208801 
	C398.462860,234.679291 409.886536,259.116211 421.236511,283.587280 
	C437.770142,319.234619 454.186462,354.936737 470.859711,390.518555 
	C473.509583,396.173615 475.056183,401.346375 470.966919,406.813507 
M307.500000,163.000000 
	C270.017700,163.000336 232.535400,162.988754 195.053101,163.009644 
	C186.046188,163.014664 182.958282,167.617844 186.324280,175.878204 
	C186.764236,176.957886 187.187714,178.046555 187.681580,179.101685 
	C207.943451,222.391556 228.258530,265.656647 248.424484,308.991119 
	C251.049316,314.631622 254.601624,317.157959 261.133453,317.127319 
	C310.775665,316.894440 360.419495,317.000061 410.062805,316.998352 
	C411.228790,316.998291 412.400085,317.044617 413.559845,316.953827 
	C418.965057,316.530579 422.006897,312.570465 420.778687,307.298737 
	C420.292938,305.213623 419.370667,303.206238 418.468445,301.245697 
	C398.347321,257.523865 378.137024,213.842880 358.142426,170.063370 
	C355.689514,164.692581 352.213806,162.776703 346.480042,162.909409 
	C333.826111,163.202209 321.160706,163.000153 307.500000,163.000000 
z"/>
<path fill="#F16944" opacity="1.000000" stroke="none" 
	d="
M139.682617,138.801453 
	C140.285049,140.746414 140.615295,142.951050 141.011948,145.977020 
	C142.891953,158.253952 144.733887,169.705170 146.512695,181.166183 
	C149.409439,199.830124 152.264954,218.500458 155.127411,237.626221 
	C155.078308,290.444397 154.987640,342.804535 155.085037,395.164337 
	C155.094330,400.159027 154.175934,404.292358 150.029373,407.330383 
	C109.831703,407.317322 69.634033,407.304260 28.940952,407.174988 
	C34.855934,401.757690 35.011959,398.027924 29.243118,392.029205 
	C27.343695,390.054077 25.701105,387.831909 23.872616,385.377991 
	C35.560032,360.112915 47.337101,335.202576 59.066685,310.269867 
	C75.490402,275.359192 91.887146,240.435822 108.279160,205.510223 
	C118.671555,183.367722 129.034363,161.211334 139.682617,138.801453 
z"/>
<path fill="#D68003" opacity="1.000000" stroke="none" 
	d="
M471.428619,406.890381 
	C475.056183,401.346375 473.509583,396.173615 470.859711,390.518555 
	C454.186462,354.936737 437.770142,319.234619 421.236511,283.587280 
	C409.886536,259.116211 398.462860,234.679291 387.111603,210.208801 
	C377.162384,188.760788 367.294830,167.274841 357.326080,145.835922 
	C355.432465,141.763535 353.234467,137.832703 351.071777,133.511658 
	C353.670166,133.115555 356.373718,133.044342 359.973969,132.962128 
	C365.896942,133.162781 371.410583,131.794037 374.818817,137.252502 
	C385.651978,160.734360 396.454498,184.230438 407.331787,207.691849 
	C412.471375,218.777618 417.809143,229.771439 422.961334,240.851456 
	C435.658020,268.156311 448.285400,295.493378 460.967316,322.805084 
	C470.634094,343.623413 480.341736,364.422791 490.092102,385.598633 
	C488.079285,388.287018 486.047760,390.646790 483.923248,392.919647 
	C479.315643,397.848938 479.504639,401.709625 484.860687,406.608704 
	C480.676483,406.918182 476.283417,406.942749 471.428619,406.890381 
z"/>
<path fill="#594235" opacity="1.000000" stroke="none" 
	d="
M374.873535,136.767334 
	C371.410583,131.794037 365.896942,133.162781 360.419312,132.898468 
	C359.980286,126.518593 360.047638,120.190857 359.986389,113.864372 
	C359.942841,109.367538 361.974762,107.076454 366.541656,106.994293 
	C372.109802,106.894119 374.814941,108.850426 374.928467,113.806183 
	C375.100067,121.294250 374.944702,128.789795 374.873535,136.767334 
z"/>
<path fill="#594235" opacity="1.000000" stroke="none" 
	d="
M155.021271,132.385498 
	C150.086578,133.610077 144.225815,131.157181 140.427704,137.166534 
	C140.098984,129.617233 139.999649,121.827438 140.022934,114.038002 
	C140.038055,108.977028 141.961395,107.075447 146.816940,107.008934 
	C152.302185,106.933792 154.807449,108.961510 154.947723,114.025681 
	C155.112885,119.988991 155.003433,125.959908 155.021271,132.385498 
z"/>
<path fill="#702D22" opacity="1.000000" stroke="none" 
	d="
M150.386261,407.529999 
	C154.175934,404.292358 155.094330,400.159027 155.085037,395.164337 
	C154.987640,342.804535 155.078308,290.444397 155.318329,237.945068 
	C162.320419,279.545868 169.231140,321.268555 175.850861,363.037323 
	C177.690903,374.647675 178.608521,379.122467 193.313828,374.693390 
	C212.960678,368.776001 230.517868,373.164307 245.685013,386.942291 
	C249.739548,390.625549 253.587692,394.535980 257.530609,398.342102 
	C257.530609,398.342102 257.472229,398.497345 257.650879,398.787292 
	C258.526337,399.726105 259.223145,400.374939 260.031250,401.353516 
	C261.716431,405.095062 264.246674,407.094055 268.131866,407.091370 
	C266.714355,407.384857 265.297211,407.932892 263.879303,407.934692 
	C226.991882,407.981964 190.104370,407.974121 153.216873,407.962677 
	C152.392273,407.962433 151.567719,407.810699 150.386261,407.529999 
z"/>
<path fill="#5B4334" opacity="1.000000" stroke="none" 
	d="
M268.444397,407.080139 
	C264.246674,407.094055 261.716431,405.095062 260.011963,400.978577 
	C259.842194,399.534637 259.802979,398.795380 259.763794,398.056152 
	C261.765778,395.455170 263.569183,392.666473 265.812164,390.293243 
	C270.149536,385.704102 274.636688,381.244293 279.249573,376.931793 
	C282.654205,373.748871 287.079407,373.865112 289.970764,376.832642 
	C292.737915,379.672638 293.012054,384.015900 289.947418,387.171936 
	C283.586884,393.722198 276.919464,399.974487 270.180176,406.614746 
	C269.573730,406.943146 269.165314,407.006042 268.444397,407.080139 
z"/>
<path fill="#702D22" opacity="1.000000" stroke="none" 
	d="
M26.151569,407.294250 
	C26.518312,407.063904 27.086514,407.062439 28.081024,407.074524 
	C27.789230,407.233093 27.071131,407.378113 26.151569,407.294250 
z"/>
<path fill="#FFB127" opacity="1.000000" stroke="none" 
	d="
M308.000000,163.000000 
	C321.160706,163.000153 333.826111,163.202209 346.480042,162.909409 
	C352.213806,162.776703 355.689514,164.692581 358.142426,170.063370 
	C378.137024,213.842880 398.347321,257.523865 418.468445,301.245697 
	C419.370667,303.206238 420.292938,305.213623 420.778687,307.298737 
	C422.006897,312.570465 418.965057,316.530579 413.559845,316.953827 
	C412.400085,317.044617 411.228790,316.998291 410.062805,316.998352 
	C360.419495,317.000061 310.775665,316.894440 261.133453,317.127319 
	C254.601624,317.157959 251.049316,314.631622 248.424484,308.991119 
	C228.258530,265.656647 207.943451,222.391556 187.681580,179.101685 
	C187.187714,178.046555 186.764236,176.957886 186.324280,175.878204 
	C182.958282,167.617844 186.046188,163.014664 195.053101,163.009644 
	C232.535400,162.988754 270.017700,163.000336 308.000000,163.000000 
M264.522675,238.001419 
	C290.165070,238.000534 315.807526,238.029907 341.449829,237.981812 
	C350.047882,237.965683 353.507050,232.457230 349.731873,224.729340 
	C345.421326,215.905579 340.854034,207.207474 336.507141,198.401062 
	C334.681061,194.701599 331.909576,192.977783 327.782623,192.983932 
	C298.810120,193.027008 269.837372,192.956375 240.865067,193.040253 
	C233.306625,193.062134 230.270416,197.883331 233.388702,204.674042 
	C236.583588,211.631546 240.629379,218.270523 243.131027,225.456802 
	C246.662888,235.602600 252.982315,239.912903 264.522675,238.001419 
z"/>
<path fill="#D36E00" opacity="1.000000" stroke="none" 
	d="
M257.581909,397.955750 
	C253.587692,394.535980 249.739548,390.625549 245.685013,386.942291 
	C230.517868,373.164307 212.960678,368.776001 193.313828,374.693390 
	C178.608521,379.122467 177.690903,374.647675 175.850861,363.037323 
	C169.231140,321.268555 162.320419,279.545868 155.328766,237.486938 
	C152.264954,218.500458 149.409439,199.830124 146.512695,181.166183 
	C144.733887,169.705170 142.891953,158.253952 141.094940,146.377075 
	C147.250580,158.677444 153.518997,171.338623 159.499176,184.134506 
	C169.074814,204.623627 178.416443,225.221939 187.933533,245.738602 
	C208.018448,289.037018 228.184555,332.297791 248.235855,375.611725 
	C251.579010,382.833405 254.511185,390.245392 257.581909,397.955750 
z"/>
<path fill="#D36E00" opacity="1.000000" stroke="none" 
	d="
M259.398682,398.092438 
	C259.802979,398.795380 259.842194,399.534637 259.900696,400.648804 
	C259.223145,400.374939 258.526337,399.726105 257.727173,398.819824 
	C258.094391,398.417847 258.563995,398.273285 259.398682,398.092438 
z"/>
<path fill="#EFD6A3" opacity="1.000000" stroke="none" 
	d="
M264.028351,238.001419 
	C252.982315,239.912903 246.662888,235.602600 243.131027,225.456802 
	C240.629379,218.270523 236.583588,211.631546 233.388702,204.674042 
	C230.270416,197.883331 233.306625,193.062134 240.865067,193.040253 
	C269.837372,192.956375 298.810120,193.027008 327.782623,192.983932 
	C331.909576,192.977783 334.681061,194.701599 336.507141,198.401062 
	C340.854034,207.207474 345.421326,215.905579 349.731873,224.729340 
	C353.507050,232.457230 350.047882,237.965683 341.449829,237.981812 
	C315.807526,238.029907 290.165070,238.000534 264.028351,238.001419 
z"/>
</svg>